 <svg version="1.0" xmlns="http://www.w3.org/2000/svg" width="700.000000pt" height="432.000000pt" viewBox="0 0 700.000000 432.000000" preserveAspectRatio="xMidYMid meet">
<metadata>
Created by potrace 1.12, written by Peter Selinger 2001-2015
</metadata>
<g transform="translate(0.000000,432.000000) scale(0.100000,-0.100000)" fill="#000000" stroke="none">
<path d="M1586 3984 c-295 -46 -547 -176 -758 -391 -216 -221 -348 -508 -377
-824 -14 -150 -15 -1561 -1 -1684 24 -205 104 -369 255 -520 149 -149 311
-229 515 -254 108 -14 2116 -14 2323 -1 428 28 672 131 850 360 53 69 86 131
221 412 33 69 58 107 88 133 73 62 105 66 470 63 378 -4 364 0 439 -113 58
-87 125 -150 175 -164 24 -7 156 -11 337 -11 326 0 331 1 380 59 43 51 47 102
47 569 l0 436 -74 71 c-41 40 -77 83 -80 96 -4 13 -7 380 -9 814 l-2 790 -24
48 c-28 58 -79 94 -158 113 -87 20 -4486 19 -4617 -2z"></path>
</g>
</svg>