<?xml version="1.0" encoding="utf-8"?>
<!-- Generator: Adobe Illustrator 15.0.0, SVG Export Plug-In . SVG Version: 6.00 Build 0)  -->
<!DOCTYPE svg PUBLIC "-//W3C//DTD SVG 1.1//EN" "http://www.w3.org/Graphics/SVG/1.1/DTD/svg11.dtd">
<svg version="1.1" id="Layer_1" xmlns="http://www.w3.org/2000/svg" xmlns:xlink="http://www.w3.org/1999/xlink" x="0px" y="0px"
	 width="1159px" height="715.02px" viewBox="0 0 1159 715.02" enable-background="new 0 0 1159 715.02" xml:space="preserve">
<path fill="none" stroke="#000000" stroke-width="3" stroke-miterlimit="10" d="M1055.743,338.018c0-24.348,0-219.618,0-248.348
	s-23.374-36.521-49.669-36.521c-26.296,0-165.921,0-165.921,0H296.578C174.48,53.148,75.5,152.128,75.5,274.226v166.215v60.545
	v16.881c0,79.337,64.315,143.652,143.652,143.652h77.426H557.1c136.349,0,169.948-45.45,200.14-117.032
	c10.367-24.579,21.102-44.313,50.969-44.313c18.504,0,59.083,0,88.788,0c29.704,0,30.679,16.881,38.956,27.757
	c10.237,13.45,18.505,20.452,37.982,20.452c19.479,0,55.514,0,80.348,0c24.835,0,29.218-18.991,29.218-47.235
	c0-28.243,0-97.391,0-118.817C1083.5,360.904,1055.743,362.365,1055.743,338.018z"/>
</svg>
